{
	"asset":{
		"generator":"Khronos glTF Blender I/O v4.0.44",
		"version":"2.0"
	},
	"scene":0,
	"scenes":[
		{
			"name":"Scene",
			"nodes":[
				0
			]
		}
	],
	"nodes":[
		{
			"mesh":0,
			"name":"Bush3.3"
		}
	],
	"materials":[
		{
			"doubleSided":true,
			"name":"Material",
			"pbrMetallicRoughness":{
				"baseColorFactor":[
					0.1237097680568695,
					0.0848086029291153,
					0.024856172502040863,
					1
				],
				"metallicFactor":0,
				"roughnessFactor":0.5
			}
		},
		{
			"doubleSided":true,
			"name":"Bush",
			"pbrMetallicRoughness":{
				"baseColorFactor":[
					0.028699249029159546,
					0.15743370354175568,
					0.01496997568756342,
					1
				],
				"metallicFactor":0,
				"roughnessFactor":0.5
			}
		},
		{
			"doubleSided":true,
			"name":"Flowers.001",
			"pbrMetallicRoughness":{
				"baseColorFactor":[
					0.8000000715255737,
					0.08751007169485092,
					0.044962458312511444,
					1
				],
				"metallicFactor":0,
				"roughnessFactor":0.5
			}
		}
	],
	"meshes":[
		{
			"name":"Cube",
			"primitives":[
				{
					"attributes":{
						"POSITION":0,
						"NORMAL":1
					},
					"indices":2,
					"material":0
				},
				{
					"attributes":{
						"POSITION":3,
						"NORMAL":4
					},
					"indices":5,
					"material":1
				},
				{
					"attributes":{
						"POSITION":6,
						"NORMAL":7
					},
					"indices":8,
					"material":2
				}
			]
		}
	],
	"accessors":[
		{
			"bufferView":0,
			"componentType":5126,
			"count":124,
			"max":[
				-0.008070931769907475,
				0.00533980643376708,
				0.4828605055809021
			],
			"min":[
				-0.07092531025409698,
				-0.4757826626300812,
				-0.2965730130672455
			],
			"type":"VEC3"
		},
		{
			"bufferView":1,
			"componentType":5126,
			"count":124,
			"type":"VEC3"
		},
		{
			"bufferView":2,
			"componentType":5123,
			"count":132,
			"type":"SCALAR"
		},
		{
			"bufferView":3,
			"componentType":5126,
			"count":330,
			"max":[
				0.5538697838783264,
				0.6342964172363281,
				0.84848552942276
			],
			"min":[
				-0.6217800378799438,
				-0.38759493827819824,
				-0.795557975769043
			],
			"type":"VEC3"
		},
		{
			"bufferView":4,
			"componentType":5126,
			"count":330,
			"type":"VEC3"
		},
		{
			"bufferView":5,
			"componentType":5123,
			"count":330,
			"type":"SCALAR"
		},
		{
			"bufferView":6,
			"componentType":5126,
			"count":360,
			"max":[
				0.45462679862976074,
				0.42552533745765686,
				0.7582935094833374
			],
			"min":[
				-0.5521973371505737,
				-0.188225656747818,
				-0.7709784507751465
			],
			"type":"VEC3"
		},
		{
			"bufferView":7,
			"componentType":5126,
			"count":360,
			"type":"VEC3"
		},
		{
			"bufferView":8,
			"componentType":5123,
			"count":360,
			"type":"SCALAR"
		}
	],
	"bufferViews":[
		{
			"buffer":0,
			"byteLength":1488,
			"byteOffset":0,
			"target":34962
		},
		{
			"buffer":0,
			"byteLength":1488,
			"byteOffset":1488,
			"target":34962
		},
		{
			"buffer":0,
			"byteLength":264,
			"byteOffset":2976,
			"target":34963
		},
		{
			"buffer":0,
			"byteLength":3960,
			"byteOffset":3240,
			"target":34962
		},
		{
			"buffer":0,
			"byteLength":3960,
			"byteOffset":7200,
			"target":34962
		},
		{
			"buffer":0,
			"byteLength":660,
			"byteOffset":11160,
			"target":34963
		},
		{
			"buffer":0,
			"byteLength":4320,
			"byteOffset":11820,
			"target":34962
		},
		{
			"buffer":0,
			"byteLength":4320,
			"byteOffset":16140,
			"target":34962
		},
		{
			"buffer":0,
			"byteLength":720,
			"byteOffset":20460,
			"target":34963
		}
	],
	"buffers":[
		{
			"byteLength":21180,
			"uri":"Bush3.3-cd028165c74b9aa772d087e790ac3401.bin"
		}
	]
}
