{
	"asset":{
		"generator":"Khronos glTF Blender I/O v4.0.44",
		"version":"2.0"
	},
	"scene":0,
	"scenes":[
		{
			"name":"Scene",
			"nodes":[
				0
			]
		}
	],
	"nodes":[
		{
			"mesh":0,
			"name":"Bush2.2"
		}
	],
	"materials":[
		{
			"doubleSided":true,
			"name":"Bush",
			"pbrMetallicRoughness":{
				"baseColorFactor":[
					0.027047768235206604,
					0.16264142096042633,
					0.02849503606557846,
					1
				],
				"metallicFactor":0,
				"roughnessFactor":0.5
			}
		},
		{
			"doubleSided":true,
			"name":"Petals",
			"pbrMetallicRoughness":{
				"baseColorFactor":[
					0.8000000715255737,
					0.2973650097846985,
					0.05829470977187157,
					1
				],
				"metallicFactor":0,
				"roughnessFactor":0.5
			}
		}
	],
	"meshes":[
		{
			"name":"Icosphere",
			"primitives":[
				{
					"attributes":{
						"POSITION":0,
						"NORMAL":1
					},
					"indices":2,
					"material":0
				},
				{
					"attributes":{
						"POSITION":3,
						"NORMAL":4
					},
					"indices":5,
					"material":1
				}
			]
		}
	],
	"accessors":[
		{
			"bufferView":0,
			"componentType":5126,
			"count":450,
			"max":[
				1.0498981475830078,
				0.3657470941543579,
				1.0580447912216187
			],
			"min":[
				-1.094778299331665,
				-0.33043521642684937,
				-1.2975742816925049
			],
			"type":"VEC3"
		},
		{
			"bufferView":1,
			"componentType":5126,
			"count":450,
			"type":"VEC3"
		},
		{
			"bufferView":2,
			"componentType":5123,
			"count":612,
			"type":"SCALAR"
		},
		{
			"bufferView":3,
			"componentType":5126,
			"count":320,
			"max":[
				0.6328194737434387,
				0.2600679397583008,
				0.8473491668701172
			],
			"min":[
				-0.747641384601593,
				0.09257523715496063,
				-0.6909383535385132
			],
			"type":"VEC3"
		},
		{
			"bufferView":4,
			"componentType":5126,
			"count":320,
			"type":"VEC3"
		},
		{
			"bufferView":5,
			"componentType":5123,
			"count":480,
			"type":"SCALAR"
		}
	],
	"bufferViews":[
		{
			"buffer":0,
			"byteLength":5400,
			"byteOffset":0,
			"target":34962
		},
		{
			"buffer":0,
			"byteLength":5400,
			"byteOffset":5400,
			"target":34962
		},
		{
			"buffer":0,
			"byteLength":1224,
			"byteOffset":10800,
			"target":34963
		},
		{
			"buffer":0,
			"byteLength":3840,
			"byteOffset":12024,
			"target":34962
		},
		{
			"buffer":0,
			"byteLength":3840,
			"byteOffset":15864,
			"target":34962
		},
		{
			"buffer":0,
			"byteLength":960,
			"byteOffset":19704,
			"target":34963
		}
	],
	"buffers":[
		{
			"byteLength":20664,
			"uri":"Bush2.2-a3f77ea9cad8ef132621f5e7332ad8e2.bin"
		}
	]
}
