{
	"asset":{
		"generator":"Khronos glTF Blender I/O v4.0.44",
		"version":"2.0"
	},
	"scene":0,
	"scenes":[
		{
			"name":"Scene",
			"nodes":[
				0
			]
		}
	],
	"nodes":[
		{
			"mesh":0,
			"name":"Bush1.3"
		}
	],
	"materials":[
		{
			"doubleSided":true,
			"name":"Bush",
			"pbrMetallicRoughness":{
				"baseColorFactor":[
					0.027047768235206604,
					0.16264142096042633,
					0.02849503606557846,
					1
				],
				"metallicFactor":0,
				"roughnessFactor":0.5
			}
		},
		{
			"doubleSided":true,
			"name":"Flower",
			"pbrMetallicRoughness":{
				"baseColorFactor":[
					0.8000000715255737,
					0.011421122588217258,
					0.013450083322823048,
					1
				],
				"metallicFactor":0,
				"roughnessFactor":0.5
			}
		}
	],
	"meshes":[
		{
			"name":"Icosphere",
			"primitives":[
				{
					"attributes":{
						"POSITION":0,
						"NORMAL":1
					},
					"indices":2,
					"material":0
				},
				{
					"attributes":{
						"POSITION":3,
						"NORMAL":4
					},
					"indices":5,
					"material":1
				}
			]
		}
	],
	"accessors":[
		{
			"bufferView":0,
			"componentType":5126,
			"count":600,
			"max":[
				1.5813724994659424,
				0.9313246011734009,
				1.6640310287475586
			],
			"min":[
				-1.933563470840454,
				-0.22758254408836365,
				-1.148205041885376
			],
			"type":"VEC3"
		},
		{
			"bufferView":1,
			"componentType":5126,
			"count":600,
			"type":"VEC3"
		},
		{
			"bufferView":2,
			"componentType":5123,
			"count":816,
			"type":"SCALAR"
		},
		{
			"bufferView":3,
			"componentType":5126,
			"count":399,
			"max":[
				1.4826698303222656,
				0.807661771774292,
				1.2376521825790405
			],
			"min":[
				-1.5105830430984497,
				0.10705400258302689,
				-1.0507616996765137
			],
			"type":"VEC3"
		},
		{
			"bufferView":4,
			"componentType":5126,
			"count":399,
			"type":"VEC3"
		},
		{
			"bufferView":5,
			"componentType":5123,
			"count":672,
			"type":"SCALAR"
		}
	],
	"bufferViews":[
		{
			"buffer":0,
			"byteLength":7200,
			"byteOffset":0,
			"target":34962
		},
		{
			"buffer":0,
			"byteLength":7200,
			"byteOffset":7200,
			"target":34962
		},
		{
			"buffer":0,
			"byteLength":1632,
			"byteOffset":14400,
			"target":34963
		},
		{
			"buffer":0,
			"byteLength":4788,
			"byteOffset":16032,
			"target":34962
		},
		{
			"buffer":0,
			"byteLength":4788,
			"byteOffset":20820,
			"target":34962
		},
		{
			"buffer":0,
			"byteLength":1344,
			"byteOffset":25608,
			"target":34963
		}
	],
	"buffers":[
		{
			"byteLength":26952,
			"uri":"Bush1.3-818a58c5c43ceae8f3923e7f38e9beae.bin"
		}
	]
}
