{
	"asset":{
		"generator":"Khronos glTF Blender I/O v4.0.44",
		"version":"2.0"
	},
	"scene":0,
	"scenes":[
		{
			"name":"Scene",
			"nodes":[
				0
			]
		}
	],
	"nodes":[
		{
			"mesh":0,
			"name":"Bush2.3"
		}
	],
	"materials":[
		{
			"doubleSided":true,
			"name":"Bush",
			"pbrMetallicRoughness":{
				"baseColorFactor":[
					0.027047768235206604,
					0.16264142096042633,
					0.02849503606557846,
					1
				],
				"metallicFactor":0,
				"roughnessFactor":0.5
			}
		},
		{
			"doubleSided":true,
			"name":"Petals",
			"pbrMetallicRoughness":{
				"baseColorFactor":[
					0.8000000715255737,
					0.2973650097846985,
					0.05829470977187157,
					1
				],
				"metallicFactor":0,
				"roughnessFactor":0.5
			}
		}
	],
	"meshes":[
		{
			"name":"Icosphere",
			"primitives":[
				{
					"attributes":{
						"POSITION":0,
						"NORMAL":1
					},
					"indices":2,
					"material":0
				},
				{
					"attributes":{
						"POSITION":3,
						"NORMAL":4
					},
					"indices":5,
					"material":1
				}
			]
		}
	],
	"accessors":[
		{
			"bufferView":0,
			"componentType":5126,
			"count":150,
			"max":[
				0.5774631500244141,
				0.3055993318557739,
				0.7422679662704468
			],
			"min":[
				-0.6445589065551758,
				-0.39058294892311096,
				-0.789070725440979
			],
			"type":"VEC3"
		},
		{
			"bufferView":1,
			"componentType":5126,
			"count":150,
			"type":"VEC3"
		},
		{
			"bufferView":2,
			"componentType":5123,
			"count":204,
			"type":"SCALAR"
		},
		{
			"bufferView":3,
			"componentType":5126,
			"count":256,
			"max":[
				0.4310900866985321,
				0.19992020726203918,
				0.5642987489700317
			],
			"min":[
				-0.2974219024181366,
				0.03242748975753784,
				-0.5156475305557251
			],
			"type":"VEC3"
		},
		{
			"bufferView":4,
			"componentType":5126,
			"count":256,
			"type":"VEC3"
		},
		{
			"bufferView":5,
			"componentType":5123,
			"count":384,
			"type":"SCALAR"
		}
	],
	"bufferViews":[
		{
			"buffer":0,
			"byteLength":1800,
			"byteOffset":0,
			"target":34962
		},
		{
			"buffer":0,
			"byteLength":1800,
			"byteOffset":1800,
			"target":34962
		},
		{
			"buffer":0,
			"byteLength":408,
			"byteOffset":3600,
			"target":34963
		},
		{
			"buffer":0,
			"byteLength":3072,
			"byteOffset":4008,
			"target":34962
		},
		{
			"buffer":0,
			"byteLength":3072,
			"byteOffset":7080,
			"target":34962
		},
		{
			"buffer":0,
			"byteLength":768,
			"byteOffset":10152,
			"target":34963
		}
	],
	"buffers":[
		{
			"byteLength":10920,
			"uri":"Bush2.3-d0c6bf1cb111f3527f6150b8eacb749c.bin"
		}
	]
}
