{
	"asset":{
		"generator":"Khronos glTF Blender I/O v4.0.44",
		"version":"2.0"
	},
	"scene":0,
	"scenes":[
		{
			"name":"Scene",
			"nodes":[
				0
			]
		}
	],
	"nodes":[
		{
			"mesh":0,
			"name":"Bush3.1"
		}
	],
	"materials":[
		{
			"doubleSided":true,
			"name":"Bush",
			"pbrMetallicRoughness":{
				"baseColorFactor":[
					0.028699249029159546,
					0.15743370354175568,
					0.01496997568756342,
					1
				],
				"metallicFactor":0,
				"roughnessFactor":0.5
			}
		},
		{
			"doubleSided":true,
			"name":"Stick",
			"pbrMetallicRoughness":{
				"baseColorFactor":[
					0.15743392705917358,
					0.10022850334644318,
					0.009764118120074272,
					1
				],
				"metallicFactor":0,
				"roughnessFactor":0.5
			}
		}
	],
	"meshes":[
		{
			"name":"Cylinder",
			"primitives":[
				{
					"attributes":{
						"POSITION":0,
						"NORMAL":1
					},
					"indices":2,
					"material":0
				},
				{
					"attributes":{
						"POSITION":3,
						"NORMAL":4
					},
					"indices":5,
					"material":1
				}
			]
		}
	],
	"accessors":[
		{
			"bufferView":0,
			"componentType":5126,
			"count":240,
			"max":[
				0.5554717779159546,
				0.6649545431137085,
				0.6069695949554443
			],
			"min":[
				-0.5986666679382324,
				-0.3246416449546814,
				-0.6360532641410828
			],
			"type":"VEC3"
		},
		{
			"bufferView":1,
			"componentType":5126,
			"count":240,
			"type":"VEC3"
		},
		{
			"bufferView":2,
			"componentType":5123,
			"count":240,
			"type":"SCALAR"
		},
		{
			"bufferView":3,
			"componentType":5126,
			"count":80,
			"max":[
				0.050130490213632584,
				0.004599869716912508,
				0.05773712322115898
			],
			"min":[
				-0.06878969818353653,
				-0.5063937306404114,
				-0.06118307262659073
			],
			"type":"VEC3"
		},
		{
			"bufferView":4,
			"componentType":5126,
			"count":80,
			"type":"VEC3"
		},
		{
			"bufferView":5,
			"componentType":5123,
			"count":132,
			"type":"SCALAR"
		}
	],
	"bufferViews":[
		{
			"buffer":0,
			"byteLength":2880,
			"byteOffset":0,
			"target":34962
		},
		{
			"buffer":0,
			"byteLength":2880,
			"byteOffset":2880,
			"target":34962
		},
		{
			"buffer":0,
			"byteLength":480,
			"byteOffset":5760,
			"target":34963
		},
		{
			"buffer":0,
			"byteLength":960,
			"byteOffset":6240,
			"target":34962
		},
		{
			"buffer":0,
			"byteLength":960,
			"byteOffset":7200,
			"target":34962
		},
		{
			"buffer":0,
			"byteLength":264,
			"byteOffset":8160,
			"target":34963
		}
	],
	"buffers":[
		{
			"byteLength":8424,
			"uri":"Bush3.1-0d0c7a4efd613f5af6ce9032a0d176e5.bin"
		}
	]
}
