{
	"asset":{
		"generator":"Khronos glTF Blender I/O v4.0.44",
		"version":"2.0"
	},
	"scene":0,
	"scenes":[
		{
			"name":"Scene",
			"nodes":[
				0
			]
		}
	],
	"nodes":[
		{
			"mesh":0,
			"name":"Flower2.3"
		}
	],
	"materials":[
		{
			"doubleSided":true,
			"name":"FlowerBase",
			"pbrMetallicRoughness":{
				"baseColorFactor":[
					0.040364932268857956,
					0.31853827834129333,
					0.036266885697841644,
					1
				],
				"metallicFactor":0,
				"roughnessFactor":0.5
			}
		},
		{
			"doubleSided":true,
			"name":"Petals",
			"pbrMetallicRoughness":{
				"baseColorFactor":[
					1,
					0.06321808695793152,
					0.08199653029441833,
					1
				],
				"metallicFactor":0,
				"roughnessFactor":0.5
			}
		},
		{
			"doubleSided":true,
			"name":"Polen",
			"pbrMetallicRoughness":{
				"baseColorFactor":[
					1,
					0.9899841547012329,
					0.02758258581161499,
					1
				],
				"metallicFactor":0,
				"roughnessFactor":0.5
			}
		}
	],
	"meshes":[
		{
			"name":"Cube.002",
			"primitives":[
				{
					"attributes":{
						"POSITION":0,
						"NORMAL":1
					},
					"indices":2,
					"material":0
				},
				{
					"attributes":{
						"POSITION":3,
						"NORMAL":4
					},
					"indices":5,
					"material":1
				},
				{
					"attributes":{
						"POSITION":6,
						"NORMAL":7
					},
					"indices":8,
					"material":2
				}
			]
		}
	],
	"accessors":[
		{
			"bufferView":0,
			"componentType":5126,
			"count":260,
			"max":[
				0.02594698593020439,
				0.04163169488310814,
				0.030711794272065163
			],
			"min":[
				-0.04995797947049141,
				-0.18100781738758087,
				-0.04572691023349762
			],
			"type":"VEC3"
		},
		{
			"bufferView":1,
			"componentType":5126,
			"count":260,
			"type":"VEC3"
		},
		{
			"bufferView":2,
			"componentType":5123,
			"count":414,
			"type":"SCALAR"
		},
		{
			"bufferView":3,
			"componentType":5126,
			"count":732,
			"max":[
				0.07297173142433167,
				0.05636967718601227,
				0.06235826015472412
			],
			"min":[
				-0.06642355024814606,
				-0.01183041650801897,
				-0.06509840488433838
			],
			"type":"VEC3"
		},
		{
			"bufferView":4,
			"componentType":5126,
			"count":732,
			"type":"VEC3"
		},
		{
			"bufferView":5,
			"componentType":5123,
			"count":1140,
			"type":"SCALAR"
		},
		{
			"bufferView":6,
			"componentType":5126,
			"count":60,
			"max":[
				0.02594698593020439,
				0.04386275261640549,
				0.010523514822125435
			],
			"min":[
				-0.01785810850560665,
				0.02092609368264675,
				-0.028082674369215965
			],
			"type":"VEC3"
		},
		{
			"bufferView":7,
			"componentType":5126,
			"count":60,
			"type":"VEC3"
		},
		{
			"bufferView":8,
			"componentType":5123,
			"count":102,
			"type":"SCALAR"
		}
	],
	"bufferViews":[
		{
			"buffer":0,
			"byteLength":3120,
			"byteOffset":0,
			"target":34962
		},
		{
			"buffer":0,
			"byteLength":3120,
			"byteOffset":3120,
			"target":34962
		},
		{
			"buffer":0,
			"byteLength":828,
			"byteOffset":6240,
			"target":34963
		},
		{
			"buffer":0,
			"byteLength":8784,
			"byteOffset":7068,
			"target":34962
		},
		{
			"buffer":0,
			"byteLength":8784,
			"byteOffset":15852,
			"target":34962
		},
		{
			"buffer":0,
			"byteLength":2280,
			"byteOffset":24636,
			"target":34963
		},
		{
			"buffer":0,
			"byteLength":720,
			"byteOffset":26916,
			"target":34962
		},
		{
			"buffer":0,
			"byteLength":720,
			"byteOffset":27636,
			"target":34962
		},
		{
			"buffer":0,
			"byteLength":204,
			"byteOffset":28356,
			"target":34963
		}
	],
	"buffers":[
		{
			"byteLength":28560,
			"uri":"Flower2.3-814e190f685e055e8254e54504a3b9cb.bin"
		}
	]
}
