{
	"asset":{
		"generator":"Khronos glTF Blender I/O v4.0.44",
		"version":"2.0"
	},
	"scene":0,
	"scenes":[
		{
			"name":"Scene",
			"nodes":[
				0
			]
		}
	],
	"nodes":[
		{
			"mesh":0,
			"name":"Flower2.1"
		}
	],
	"materials":[
		{
			"doubleSided":true,
			"name":"FlowerBase",
			"pbrMetallicRoughness":{
				"baseColorFactor":[
					0.040364932268857956,
					0.31853827834129333,
					0.036266885697841644,
					1
				],
				"metallicFactor":0,
				"roughnessFactor":0.5
			}
		},
		{
			"doubleSided":true,
			"name":"Petals",
			"pbrMetallicRoughness":{
				"baseColorFactor":[
					1,
					0.06321808695793152,
					0.08199653029441833,
					1
				],
				"metallicFactor":0,
				"roughnessFactor":0.5
			}
		},
		{
			"doubleSided":true,
			"name":"Polen",
			"pbrMetallicRoughness":{
				"baseColorFactor":[
					1,
					0.9899841547012329,
					0.02758258581161499,
					1
				],
				"metallicFactor":0,
				"roughnessFactor":0.5
			}
		}
	],
	"meshes":[
		{
			"name":"Cube.001",
			"primitives":[
				{
					"attributes":{
						"POSITION":0,
						"NORMAL":1
					},
					"indices":2,
					"material":0
				},
				{
					"attributes":{
						"POSITION":3,
						"NORMAL":4
					},
					"indices":5,
					"material":1
				},
				{
					"attributes":{
						"POSITION":6,
						"NORMAL":7
					},
					"indices":8,
					"material":2
				}
			]
		}
	],
	"accessors":[
		{
			"bufferView":0,
			"componentType":5126,
			"count":260,
			"max":[
				0.023548202589154243,
				0.037080757319927216,
				0.018556848168373108
			],
			"min":[
				-0.034976571798324585,
				-0.25328296422958374,
				-0.026500020176172256
			],
			"type":"VEC3"
		},
		{
			"bufferView":1,
			"componentType":5126,
			"count":260,
			"type":"VEC3"
		},
		{
			"bufferView":2,
			"componentType":5123,
			"count":414,
			"type":"SCALAR"
		},
		{
			"bufferView":3,
			"componentType":5126,
			"count":732,
			"max":[
				0.06801055371761322,
				0.03860795497894287,
				0.06911338865756989
			],
			"min":[
				-0.059352193027734756,
				0.023674501106142998,
				-0.061393678188323975
			],
			"type":"VEC3"
		},
		{
			"bufferView":4,
			"componentType":5126,
			"count":732,
			"type":"VEC3"
		},
		{
			"bufferView":5,
			"componentType":5123,
			"count":1140,
			"type":"SCALAR"
		},
		{
			"bufferView":6,
			"componentType":5126,
			"count":60,
			"max":[
				0.023548202589154243,
				0.04446064308285713,
				0.018556848168373108
			],
			"min":[
				-0.02150866575539112,
				0.037080757319927216,
				-0.026500020176172256
			],
			"type":"VEC3"
		},
		{
			"bufferView":7,
			"componentType":5126,
			"count":60,
			"type":"VEC3"
		},
		{
			"bufferView":8,
			"componentType":5123,
			"count":102,
			"type":"SCALAR"
		}
	],
	"bufferViews":[
		{
			"buffer":0,
			"byteLength":3120,
			"byteOffset":0,
			"target":34962
		},
		{
			"buffer":0,
			"byteLength":3120,
			"byteOffset":3120,
			"target":34962
		},
		{
			"buffer":0,
			"byteLength":828,
			"byteOffset":6240,
			"target":34963
		},
		{
			"buffer":0,
			"byteLength":8784,
			"byteOffset":7068,
			"target":34962
		},
		{
			"buffer":0,
			"byteLength":8784,
			"byteOffset":15852,
			"target":34962
		},
		{
			"buffer":0,
			"byteLength":2280,
			"byteOffset":24636,
			"target":34963
		},
		{
			"buffer":0,
			"byteLength":720,
			"byteOffset":26916,
			"target":34962
		},
		{
			"buffer":0,
			"byteLength":720,
			"byteOffset":27636,
			"target":34962
		},
		{
			"buffer":0,
			"byteLength":204,
			"byteOffset":28356,
			"target":34963
		}
	],
	"buffers":[
		{
			"byteLength":28560,
			"uri":"Flower2.1-b8d137f164da473200e54e74819cbb5b.bin"
		}
	]
}
