{
	"asset":{
		"generator":"Khronos glTF Blender I/O v4.0.44",
		"version":"2.0"
	},
	"scene":0,
	"scenes":[
		{
			"name":"Scene",
			"nodes":[
				0
			]
		}
	],
	"nodes":[
		{
			"mesh":0,
			"name":"Flower1.1"
		}
	],
	"materials":[
		{
			"doubleSided":true,
			"name":"FlowerBase",
			"pbrMetallicRoughness":{
				"baseColorFactor":[
					0.040364932268857956,
					0.31853827834129333,
					0.036266885697841644,
					1
				],
				"metallicFactor":0,
				"roughnessFactor":0.5
			}
		},
		{
			"doubleSided":true,
			"name":"Petals",
			"pbrMetallicRoughness":{
				"baseColorFactor":[
					1,
					0.9527130126953125,
					0.8941038846969604,
					1
				],
				"metallicFactor":0,
				"roughnessFactor":0.5
			}
		},
		{
			"doubleSided":true,
			"name":"Polen",
			"pbrMetallicRoughness":{
				"baseColorFactor":[
					1,
					0.9899841547012329,
					0.02758258581161499,
					1
				],
				"metallicFactor":0,
				"roughnessFactor":0.5
			}
		}
	],
	"meshes":[
		{
			"name":"Cube.001",
			"primitives":[
				{
					"attributes":{
						"POSITION":0,
						"NORMAL":1
					},
					"indices":2,
					"material":0
				},
				{
					"attributes":{
						"POSITION":3,
						"NORMAL":4
					},
					"indices":5,
					"material":1
				},
				{
					"attributes":{
						"POSITION":6,
						"NORMAL":7
					},
					"indices":8,
					"material":2
				}
			]
		}
	],
	"accessors":[
		{
			"bufferView":0,
			"componentType":5126,
			"count":540,
			"max":[
				0.027744531631469727,
				0.060029175132513046,
				0.07530582696199417
			],
			"min":[
				-0.02851315215229988,
				-0.26294779777526855,
				-0.07239803671836853
			],
			"type":"VEC3"
		},
		{
			"bufferView":1,
			"componentType":5126,
			"count":540,
			"type":"VEC3"
		},
		{
			"bufferView":2,
			"componentType":5123,
			"count":822,
			"type":"SCALAR"
		},
		{
			"bufferView":3,
			"componentType":5126,
			"count":848,
			"max":[
				0.07124804705381393,
				0.0623479001224041,
				0.07790462672710419
			],
			"min":[
				-0.074704110622406,
				0.04593044891953468,
				-0.0753566175699234
			],
			"type":"VEC3"
		},
		{
			"bufferView":4,
			"componentType":5126,
			"count":848,
			"type":"VEC3"
		},
		{
			"bufferView":5,
			"componentType":5123,
			"count":1344,
			"type":"SCALAR"
		},
		{
			"bufferView":6,
			"componentType":5126,
			"count":60,
			"max":[
				0.026691056787967682,
				0.06740906089544296,
				0.030138090252876282
			],
			"min":[
				-0.02851315215229988,
				0.060029175132513046,
				-0.02506612055003643
			],
			"type":"VEC3"
		},
		{
			"bufferView":7,
			"componentType":5126,
			"count":60,
			"type":"VEC3"
		},
		{
			"bufferView":8,
			"componentType":5123,
			"count":102,
			"type":"SCALAR"
		}
	],
	"bufferViews":[
		{
			"buffer":0,
			"byteLength":6480,
			"byteOffset":0,
			"target":34962
		},
		{
			"buffer":0,
			"byteLength":6480,
			"byteOffset":6480,
			"target":34962
		},
		{
			"buffer":0,
			"byteLength":1644,
			"byteOffset":12960,
			"target":34963
		},
		{
			"buffer":0,
			"byteLength":10176,
			"byteOffset":14604,
			"target":34962
		},
		{
			"buffer":0,
			"byteLength":10176,
			"byteOffset":24780,
			"target":34962
		},
		{
			"buffer":0,
			"byteLength":2688,
			"byteOffset":34956,
			"target":34963
		},
		{
			"buffer":0,
			"byteLength":720,
			"byteOffset":37644,
			"target":34962
		},
		{
			"buffer":0,
			"byteLength":720,
			"byteOffset":38364,
			"target":34962
		},
		{
			"buffer":0,
			"byteLength":204,
			"byteOffset":39084,
			"target":34963
		}
	],
	"buffers":[
		{
			"byteLength":39288,
			"uri":"Flower1.1-60dd726f3221738cac8c5501ec09ca1b.bin"
		}
	]
}
