{
	"asset":{
		"generator":"Khronos glTF Blender I/O v4.0.44",
		"version":"2.0"
	},
	"scene":0,
	"scenes":[
		{
			"name":"Scene",
			"nodes":[
				0
			]
		}
	],
	"nodes":[
		{
			"mesh":0,
			"name":"Flower3.1"
		}
	],
	"materials":[
		{
			"doubleSided":true,
			"name":"FlowerBase",
			"pbrMetallicRoughness":{
				"baseColorFactor":[
					0.040364932268857956,
					0.31853827834129333,
					0.036266885697841644,
					1
				],
				"metallicFactor":0,
				"roughnessFactor":0.5
			}
		},
		{
			"doubleSided":true,
			"name":"Petals",
			"pbrMetallicRoughness":{
				"baseColorFactor":[
					1,
					0.06321808695793152,
					0.08199653029441833,
					1
				],
				"metallicFactor":0,
				"roughnessFactor":0.5
			}
		},
		{
			"doubleSided":true,
			"name":"Polen",
			"pbrMetallicRoughness":{
				"baseColorFactor":[
					1,
					0.9899841547012329,
					0.02758258581161499,
					1
				],
				"metallicFactor":0,
				"roughnessFactor":0.5
			}
		}
	],
	"meshes":[
		{
			"name":"Cube.001",
			"primitives":[
				{
					"attributes":{
						"POSITION":0,
						"NORMAL":1
					},
					"indices":2,
					"material":0
				},
				{
					"attributes":{
						"POSITION":3,
						"NORMAL":4
					},
					"indices":5,
					"material":1
				},
				{
					"attributes":{
						"POSITION":6,
						"NORMAL":7
					},
					"indices":8,
					"material":2
				}
			]
		}
	],
	"accessors":[
		{
			"bufferView":0,
			"componentType":5126,
			"count":412,
			"max":[
				0.04898028075695038,
				0.015554221346974373,
				0.01347664650529623
			],
			"min":[
				-0.05825446918606758,
				-0.346346378326416,
				-0.03132098540663719
			],
			"type":"VEC3"
		},
		{
			"bufferView":1,
			"componentType":5126,
			"count":412,
			"type":"VEC3"
		},
		{
			"bufferView":2,
			"componentType":5123,
			"count":654,
			"type":"SCALAR"
		},
		{
			"bufferView":3,
			"componentType":5126,
			"count":108,
			"max":[
				0.03394444286823273,
				0.07381952553987503,
				0.03448520228266716
			],
			"min":[
				-0.03412310406565666,
				0.015554221346974373,
				-0.03358233720064163
			],
			"type":"VEC3"
		},
		{
			"bufferView":4,
			"componentType":5126,
			"count":108,
			"type":"VEC3"
		},
		{
			"bufferView":5,
			"componentType":5123,
			"count":174,
			"type":"SCALAR"
		},
		{
			"bufferView":6,
			"componentType":5126,
			"count":832,
			"max":[
				0.0037206716369837523,
				0.07464181631803513,
				0.006038100458681583
			],
			"min":[
				-0.002548736287280917,
				0.039364274591207504,
				-0.0038527939468622208
			],
			"type":"VEC3"
		},
		{
			"bufferView":7,
			"componentType":5126,
			"count":832,
			"type":"VEC3"
		},
		{
			"bufferView":8,
			"componentType":5123,
			"count":1296,
			"type":"SCALAR"
		}
	],
	"bufferViews":[
		{
			"buffer":0,
			"byteLength":4944,
			"byteOffset":0,
			"target":34962
		},
		{
			"buffer":0,
			"byteLength":4944,
			"byteOffset":4944,
			"target":34962
		},
		{
			"buffer":0,
			"byteLength":1308,
			"byteOffset":9888,
			"target":34963
		},
		{
			"buffer":0,
			"byteLength":1296,
			"byteOffset":11196,
			"target":34962
		},
		{
			"buffer":0,
			"byteLength":1296,
			"byteOffset":12492,
			"target":34962
		},
		{
			"buffer":0,
			"byteLength":348,
			"byteOffset":13788,
			"target":34963
		},
		{
			"buffer":0,
			"byteLength":9984,
			"byteOffset":14136,
			"target":34962
		},
		{
			"buffer":0,
			"byteLength":9984,
			"byteOffset":24120,
			"target":34962
		},
		{
			"buffer":0,
			"byteLength":2592,
			"byteOffset":34104,
			"target":34963
		}
	],
	"buffers":[
		{
			"byteLength":36696,
			"uri":"Flower3.1-8586e26d97fff62c4886329672ef8a42.bin"
		}
	]
}
