{
	"asset":{
		"generator":"Khronos glTF Blender I/O v4.0.44",
		"version":"2.0"
	},
	"scene":0,
	"scenes":[
		{
			"name":"Scene",
			"nodes":[
				0
			]
		}
	],
	"nodes":[
		{
			"mesh":0,
			"name":"Flower2.2"
		}
	],
	"materials":[
		{
			"doubleSided":true,
			"name":"FlowerBase",
			"pbrMetallicRoughness":{
				"baseColorFactor":[
					0.040364932268857956,
					0.31853827834129333,
					0.036266885697841644,
					1
				],
				"metallicFactor":0,
				"roughnessFactor":0.5
			}
		},
		{
			"doubleSided":true,
			"name":"Petals",
			"pbrMetallicRoughness":{
				"baseColorFactor":[
					1,
					0.06321808695793152,
					0.08199653029441833,
					1
				],
				"metallicFactor":0,
				"roughnessFactor":0.5
			}
		},
		{
			"doubleSided":true,
			"name":"Polen",
			"pbrMetallicRoughness":{
				"baseColorFactor":[
					1,
					0.9899841547012329,
					0.02758258581161499,
					1
				],
				"metallicFactor":0,
				"roughnessFactor":0.5
			}
		}
	],
	"meshes":[
		{
			"name":"Cube.000",
			"primitives":[
				{
					"attributes":{
						"POSITION":0,
						"NORMAL":1
					},
					"indices":2,
					"material":0
				},
				{
					"attributes":{
						"POSITION":3,
						"NORMAL":4
					},
					"indices":5,
					"material":1
				},
				{
					"attributes":{
						"POSITION":6,
						"NORMAL":7
					},
					"indices":8,
					"material":2
				}
			]
		}
	],
	"accessors":[
		{
			"bufferView":0,
			"componentType":5126,
			"count":308,
			"max":[
				0.04589710757136345,
				0.03225943073630333,
				0.03302101045846939
			],
			"min":[
				-0.04531075805425644,
				-0.1492609828710556,
				-0.016579890623688698
			],
			"type":"VEC3"
		},
		{
			"bufferView":1,
			"componentType":5126,
			"count":308,
			"type":"VEC3"
		},
		{
			"bufferView":2,
			"componentType":5123,
			"count":486,
			"type":"SCALAR"
		},
		{
			"bufferView":3,
			"componentType":5126,
			"count":732,
			"max":[
				0.04937620460987091,
				0.04615309089422226,
				0.057703785598278046
			],
			"min":[
				-0.047013700008392334,
				-0.018880534917116165,
				-0.05956398695707321
			],
			"type":"VEC3"
		},
		{
			"bufferView":4,
			"componentType":5126,
			"count":732,
			"type":"VEC3"
		},
		{
			"bufferView":5,
			"componentType":5123,
			"count":1140,
			"type":"SCALAR"
		},
		{
			"bufferView":6,
			"componentType":5126,
			"count":60,
			"max":[
				0.021351147443056107,
				0.033199064433574677,
				0.019413843750953674
			],
			"min":[
				-0.008850662969052792,
				0.012200932018458843,
				-0.016579890623688698
			],
			"type":"VEC3"
		},
		{
			"bufferView":7,
			"componentType":5126,
			"count":60,
			"type":"VEC3"
		},
		{
			"bufferView":8,
			"componentType":5123,
			"count":102,
			"type":"SCALAR"
		}
	],
	"bufferViews":[
		{
			"buffer":0,
			"byteLength":3696,
			"byteOffset":0,
			"target":34962
		},
		{
			"buffer":0,
			"byteLength":3696,
			"byteOffset":3696,
			"target":34962
		},
		{
			"buffer":0,
			"byteLength":972,
			"byteOffset":7392,
			"target":34963
		},
		{
			"buffer":0,
			"byteLength":8784,
			"byteOffset":8364,
			"target":34962
		},
		{
			"buffer":0,
			"byteLength":8784,
			"byteOffset":17148,
			"target":34962
		},
		{
			"buffer":0,
			"byteLength":2280,
			"byteOffset":25932,
			"target":34963
		},
		{
			"buffer":0,
			"byteLength":720,
			"byteOffset":28212,
			"target":34962
		},
		{
			"buffer":0,
			"byteLength":720,
			"byteOffset":28932,
			"target":34962
		},
		{
			"buffer":0,
			"byteLength":204,
			"byteOffset":29652,
			"target":34963
		}
	],
	"buffers":[
		{
			"byteLength":29856,
			"uri":"Flower2.2-e03040240c41d5447a9a1c88fdce57c4.bin"
		}
	]
}
