{
	"asset":{
		"generator":"Khronos glTF Blender I/O v4.0.44",
		"version":"2.0"
	},
	"scene":0,
	"scenes":[
		{
			"name":"Scene",
			"nodes":[
				0
			]
		}
	],
	"nodes":[
		{
			"mesh":0,
			"name":"Flower3.3"
		}
	],
	"materials":[
		{
			"doubleSided":true,
			"name":"FlowerBase",
			"pbrMetallicRoughness":{
				"baseColorFactor":[
					0.040364932268857956,
					0.31853827834129333,
					0.036266885697841644,
					1
				],
				"metallicFactor":0,
				"roughnessFactor":0.5
			}
		},
		{
			"doubleSided":true,
			"name":"Petals",
			"pbrMetallicRoughness":{
				"baseColorFactor":[
					1,
					0.06321808695793152,
					0.08199653029441833,
					1
				],
				"metallicFactor":0,
				"roughnessFactor":0.5
			}
		},
		{
			"doubleSided":true,
			"name":"Polen",
			"pbrMetallicRoughness":{
				"baseColorFactor":[
					1,
					0.9899841547012329,
					0.02758258581161499,
					1
				],
				"metallicFactor":0,
				"roughnessFactor":0.5
			}
		}
	],
	"meshes":[
		{
			"name":"Cube.001",
			"primitives":[
				{
					"attributes":{
						"POSITION":0,
						"NORMAL":1
					},
					"indices":2,
					"material":0
				},
				{
					"attributes":{
						"POSITION":3,
						"NORMAL":4
					},
					"indices":5,
					"material":1
				},
				{
					"attributes":{
						"POSITION":6,
						"NORMAL":7
					},
					"indices":8,
					"material":2
				}
			]
		}
	],
	"accessors":[
		{
			"bufferView":0,
			"componentType":5126,
			"count":284,
			"max":[
				0.0075558871030807495,
				0.017928466200828552,
				0.0515771247446537
			],
			"min":[
				-0.061871789395809174,
				-0.21336792409420013,
				0.00503610959276557
			],
			"type":"VEC3"
		},
		{
			"bufferView":1,
			"componentType":5126,
			"count":284,
			"type":"VEC3"
		},
		{
			"bufferView":2,
			"componentType":5123,
			"count":450,
			"type":"SCALAR"
		},
		{
			"bufferView":3,
			"componentType":5126,
			"count":108,
			"max":[
				0.03567477688193321,
				0.07963244616985321,
				0.019940117374062538
			],
			"min":[
				-0.032208215445280075,
				0.01055316161364317,
				-0.046929724514484406
			],
			"type":"VEC3"
		},
		{
			"bufferView":4,
			"componentType":5126,
			"count":108,
			"type":"VEC3"
		},
		{
			"bufferView":5,
			"componentType":5123,
			"count":174,
			"type":"SCALAR"
		},
		{
			"bufferView":6,
			"componentType":5126,
			"count":832,
			"max":[
				0.005567688960582018,
				0.06631721556186676,
				-0.0011582839069887996
			],
			"min":[
				-0.0009593153954483569,
				0.032857976853847504,
				-0.02270149253308773
			],
			"type":"VEC3"
		},
		{
			"bufferView":7,
			"componentType":5126,
			"count":832,
			"type":"VEC3"
		},
		{
			"bufferView":8,
			"componentType":5123,
			"count":1296,
			"type":"SCALAR"
		}
	],
	"bufferViews":[
		{
			"buffer":0,
			"byteLength":3408,
			"byteOffset":0,
			"target":34962
		},
		{
			"buffer":0,
			"byteLength":3408,
			"byteOffset":3408,
			"target":34962
		},
		{
			"buffer":0,
			"byteLength":900,
			"byteOffset":6816,
			"target":34963
		},
		{
			"buffer":0,
			"byteLength":1296,
			"byteOffset":7716,
			"target":34962
		},
		{
			"buffer":0,
			"byteLength":1296,
			"byteOffset":9012,
			"target":34962
		},
		{
			"buffer":0,
			"byteLength":348,
			"byteOffset":10308,
			"target":34963
		},
		{
			"buffer":0,
			"byteLength":9984,
			"byteOffset":10656,
			"target":34962
		},
		{
			"buffer":0,
			"byteLength":9984,
			"byteOffset":20640,
			"target":34962
		},
		{
			"buffer":0,
			"byteLength":2592,
			"byteOffset":30624,
			"target":34963
		}
	],
	"buffers":[
		{
			"byteLength":33216,
			"uri":"Flower3.3-cc3ef00c31e467ae530be956d53999cb.bin"
		}
	]
}
