{
	"asset":{
		"generator":"Khronos glTF Blender I/O v4.0.44",
		"version":"2.0"
	},
	"scene":0,
	"scenes":[
		{
			"name":"Scene",
			"nodes":[
				0
			]
		}
	],
	"nodes":[
		{
			"mesh":0,
			"name":"Flower1.2"
		}
	],
	"materials":[
		{
			"doubleSided":true,
			"name":"FlowerBase",
			"pbrMetallicRoughness":{
				"baseColorFactor":[
					0.040364932268857956,
					0.31853827834129333,
					0.036266885697841644,
					1
				],
				"metallicFactor":0,
				"roughnessFactor":0.5
			}
		},
		{
			"doubleSided":true,
			"name":"Petals",
			"pbrMetallicRoughness":{
				"baseColorFactor":[
					1,
					0.9527130126953125,
					0.8941038846969604,
					1
				],
				"metallicFactor":0,
				"roughnessFactor":0.5
			}
		},
		{
			"doubleSided":true,
			"name":"Polen",
			"pbrMetallicRoughness":{
				"baseColorFactor":[
					1,
					0.9899841547012329,
					0.02758258581161499,
					1
				],
				"metallicFactor":0,
				"roughnessFactor":0.5
			}
		}
	],
	"meshes":[
		{
			"name":"Cube.002",
			"primitives":[
				{
					"attributes":{
						"POSITION":0,
						"NORMAL":1
					},
					"indices":2,
					"material":0
				},
				{
					"attributes":{
						"POSITION":3,
						"NORMAL":4
					},
					"indices":5,
					"material":1
				},
				{
					"attributes":{
						"POSITION":6,
						"NORMAL":7
					},
					"indices":8,
					"material":2
				}
			]
		}
	],
	"accessors":[
		{
			"bufferView":0,
			"componentType":5126,
			"count":428,
			"max":[
				0.046415820717811584,
				0.04490923509001732,
				0.08431186527013779
			],
			"min":[
				-0.03279062733054161,
				-0.19058439135551453,
				-0.06339198350906372
			],
			"type":"VEC3"
		},
		{
			"bufferView":1,
			"componentType":5126,
			"count":428,
			"type":"VEC3"
		},
		{
			"bufferView":2,
			"componentType":5123,
			"count":654,
			"type":"SCALAR"
		},
		{
			"bufferView":3,
			"componentType":5126,
			"count":848,
			"max":[
				0.05915737524628639,
				0.06290185451507568,
				0.07284732908010483
			],
			"min":[
				-0.07488875836133957,
				0.0001569518935866654,
				-0.08041393011808395
			],
			"type":"VEC3"
		},
		{
			"bufferView":4,
			"componentType":5126,
			"count":848,
			"type":"VEC3"
		},
		{
			"bufferView":5,
			"componentType":5123,
			"count":1344,
			"type":"SCALAR"
		},
		{
			"bufferView":6,
			"componentType":5126,
			"count":60,
			"max":[
				0.01761586405336857,
				0.046807438135147095,
				0.025080779567360878
			],
			"min":[
				-0.03279062733054161,
				0.022399436682462692,
				-0.03012341633439064
			],
			"type":"VEC3"
		},
		{
			"bufferView":7,
			"componentType":5126,
			"count":60,
			"type":"VEC3"
		},
		{
			"bufferView":8,
			"componentType":5123,
			"count":102,
			"type":"SCALAR"
		}
	],
	"bufferViews":[
		{
			"buffer":0,
			"byteLength":5136,
			"byteOffset":0,
			"target":34962
		},
		{
			"buffer":0,
			"byteLength":5136,
			"byteOffset":5136,
			"target":34962
		},
		{
			"buffer":0,
			"byteLength":1308,
			"byteOffset":10272,
			"target":34963
		},
		{
			"buffer":0,
			"byteLength":10176,
			"byteOffset":11580,
			"target":34962
		},
		{
			"buffer":0,
			"byteLength":10176,
			"byteOffset":21756,
			"target":34962
		},
		{
			"buffer":0,
			"byteLength":2688,
			"byteOffset":31932,
			"target":34963
		},
		{
			"buffer":0,
			"byteLength":720,
			"byteOffset":34620,
			"target":34962
		},
		{
			"buffer":0,
			"byteLength":720,
			"byteOffset":35340,
			"target":34962
		},
		{
			"buffer":0,
			"byteLength":204,
			"byteOffset":36060,
			"target":34963
		}
	],
	"buffers":[
		{
			"byteLength":36264,
			"uri":"Flower1.2-0a55784701b04a92c9ada1d44fa6846d.bin"
		}
	]
}
