{
	"asset":{
		"generator":"Khronos glTF Blender I/O v4.0.44",
		"version":"2.0"
	},
	"scene":0,
	"scenes":[
		{
			"name":"Scene",
			"nodes":[
				0
			]
		}
	],
	"nodes":[
		{
			"mesh":0,
			"name":"Mushroom1.1",
			"scale":[
				0.030315758660435677,
				0.023489367216825485,
				0.030315758660435677
			]
		}
	],
	"materials":[
		{
			"doubleSided":true,
			"name":"Mushroom1",
			"pbrMetallicRoughness":{
				"baseColorFactor":[
					0.8829214572906494,
					0.5006505250930786,
					0.19688086211681366,
					1
				],
				"metallicFactor":0,
				"roughnessFactor":0.5
			}
		},
		{
			"doubleSided":true,
			"name":"Mushroom2",
			"pbrMetallicRoughness":{
				"baseColorFactor":[
					0.43854305148124695,
					0.20255208015441895,
					0.03179917111992836,
					1
				],
				"metallicFactor":0,
				"roughnessFactor":0.5
			}
		}
	],
	"meshes":[
		{
			"name":"Cylinder",
			"primitives":[
				{
					"attributes":{
						"POSITION":0,
						"NORMAL":1
					},
					"indices":2,
					"material":0
				},
				{
					"attributes":{
						"POSITION":3,
						"NORMAL":4
					},
					"indices":5,
					"material":1
				}
			]
		}
	],
	"accessors":[
		{
			"bufferView":0,
			"componentType":5126,
			"count":60,
			"max":[
				2.6469850540161133,
				0.6568635702133179,
				2.6469850540161133
			],
			"min":[
				-2.6469850540161133,
				-2.8839287757873535,
				-2.6469850540161133
			],
			"type":"VEC3"
		},
		{
			"bufferView":1,
			"componentType":5126,
			"count":60,
			"type":"VEC3"
		},
		{
			"bufferView":2,
			"componentType":5123,
			"count":90,
			"type":"SCALAR"
		},
		{
			"bufferView":3,
			"componentType":5126,
			"count":148,
			"max":[
				2.6469850540161133,
				2.0603575706481934,
				2.6469850540161133
			],
			"min":[
				-2.6469850540161133,
				-2.8839287757873535,
				-2.6469850540161133
			],
			"type":"VEC3"
		},
		{
			"bufferView":4,
			"componentType":5126,
			"count":148,
			"type":"VEC3"
		},
		{
			"bufferView":5,
			"componentType":5123,
			"count":234,
			"type":"SCALAR"
		}
	],
	"bufferViews":[
		{
			"buffer":0,
			"byteLength":720,
			"byteOffset":0,
			"target":34962
		},
		{
			"buffer":0,
			"byteLength":720,
			"byteOffset":720,
			"target":34962
		},
		{
			"buffer":0,
			"byteLength":180,
			"byteOffset":1440,
			"target":34963
		},
		{
			"buffer":0,
			"byteLength":1776,
			"byteOffset":1620,
			"target":34962
		},
		{
			"buffer":0,
			"byteLength":1776,
			"byteOffset":3396,
			"target":34962
		},
		{
			"buffer":0,
			"byteLength":468,
			"byteOffset":5172,
			"target":34963
		}
	],
	"buffers":[
		{
			"byteLength":5640,
			"uri":"Mushroom1.1-56c7a87b6a00ad0cde663e4afe630b5b.bin"
		}
	]
}
