{
	"asset":{
		"generator":"Khronos glTF Blender I/O v4.0.44",
		"version":"2.0"
	},
	"scene":0,
	"scenes":[
		{
			"name":"Scene",
			"nodes":[
				0
			]
		}
	],
	"nodes":[
		{
			"mesh":0,
			"name":"Mushroom2.2",
			"scale":[
				0.030315758660435677,
				0.023489367216825485,
				0.030315758660435677
			]
		}
	],
	"materials":[
		{
			"doubleSided":true,
			"name":"Mushroom1",
			"pbrMetallicRoughness":{
				"baseColorFactor":[
					0.6500046849250793,
					0.308976411819458,
					0.2739131450653076,
					1
				],
				"metallicFactor":0,
				"roughnessFactor":0.5
			}
		},
		{
			"doubleSided":true,
			"name":"Mushroom2",
			"pbrMetallicRoughness":{
				"baseColorFactor":[
					1,
					0.36724644899368286,
					0.36724644899368286,
					1
				],
				"metallicFactor":0,
				"roughnessFactor":0.5
			}
		}
	],
	"meshes":[
		{
			"name":"Cylinder",
			"primitives":[
				{
					"attributes":{
						"POSITION":0,
						"NORMAL":1
					},
					"indices":2,
					"material":0
				},
				{
					"attributes":{
						"POSITION":3,
						"NORMAL":4
					},
					"indices":5,
					"material":1
				}
			]
		}
	],
	"accessors":[
		{
			"bufferView":0,
			"componentType":5126,
			"count":72,
			"max":[
				2.17938494682312,
				0.6886186599731445,
				2.17938494682312
			],
			"min":[
				-2.17938494682312,
				-8.341487884521484,
				-2.17938494682312
			],
			"type":"VEC3"
		},
		{
			"bufferView":1,
			"componentType":5126,
			"count":72,
			"type":"VEC3"
		},
		{
			"bufferView":2,
			"componentType":5123,
			"count":114,
			"type":"SCALAR"
		},
		{
			"bufferView":3,
			"componentType":5126,
			"count":168,
			"max":[
				3.175570249557495,
				2.6433115005493164,
				3.175570249557495
			],
			"min":[
				-3.175570249557495,
				-0.06634281575679779,
				-3.175570249557495
			],
			"type":"VEC3"
		},
		{
			"bufferView":4,
			"componentType":5126,
			"count":168,
			"type":"VEC3"
		},
		{
			"bufferView":5,
			"componentType":5123,
			"count":258,
			"type":"SCALAR"
		}
	],
	"bufferViews":[
		{
			"buffer":0,
			"byteLength":864,
			"byteOffset":0,
			"target":34962
		},
		{
			"buffer":0,
			"byteLength":864,
			"byteOffset":864,
			"target":34962
		},
		{
			"buffer":0,
			"byteLength":228,
			"byteOffset":1728,
			"target":34963
		},
		{
			"buffer":0,
			"byteLength":2016,
			"byteOffset":1956,
			"target":34962
		},
		{
			"buffer":0,
			"byteLength":2016,
			"byteOffset":3972,
			"target":34962
		},
		{
			"buffer":0,
			"byteLength":516,
			"byteOffset":5988,
			"target":34963
		}
	],
	"buffers":[
		{
			"byteLength":6504,
			"uri":"Mushroom2.2-b9e1e52dfaa642629157723a548d12d7.bin"
		}
	]
}
