{
	"asset":{
		"generator":"Khronos glTF Blender I/O v4.0.44",
		"version":"2.0"
	},
	"scene":0,
	"scenes":[
		{
			"name":"Scene",
			"nodes":[
				0
			]
		}
	],
	"nodes":[
		{
			"mesh":0,
			"name":"Mushroom2.1",
			"scale":[
				0.030315758660435677,
				0.023489367216825485,
				0.030315758660435677
			]
		}
	],
	"materials":[
		{
			"doubleSided":true,
			"name":"Mushroom2",
			"pbrMetallicRoughness":{
				"baseColorFactor":[
					0.7105533480644226,
					0.006961440667510033,
					0.015920110046863556,
					1
				],
				"metallicFactor":0,
				"roughnessFactor":0.5
			}
		},
		{
			"doubleSided":true,
			"name":"Mushroom1",
			"pbrMetallicRoughness":{
				"baseColorFactor":[
					1,
					1,
					1,
					1
				],
				"metallicFactor":0,
				"roughnessFactor":0.5
			}
		}
	],
	"meshes":[
		{
			"name":"Cylinder",
			"primitives":[
				{
					"attributes":{
						"POSITION":0,
						"NORMAL":1
					},
					"indices":2,
					"material":0
				},
				{
					"attributes":{
						"POSITION":3,
						"NORMAL":4
					},
					"indices":5,
					"material":1
				}
			]
		}
	],
	"accessors":[
		{
			"bufferView":0,
			"componentType":5126,
			"count":136,
			"max":[
				2.6116342544555664,
				1.190298080444336,
				2.731180429458618
			],
			"min":[
				-2.68233585357666,
				-1.3121939897537231,
				-2.5627896785736084
			],
			"type":"VEC3"
		},
		{
			"bufferView":1,
			"componentType":5126,
			"count":136,
			"type":"VEC3"
		},
		{
			"bufferView":2,
			"componentType":5123,
			"count":210,
			"type":"SCALAR"
		},
		{
			"bufferView":3,
			"componentType":5126,
			"count":492,
			"max":[
				2.1541337966918945,
				1.3299453258514404,
				2.263580322265625
			],
			"min":[
				-2.214735746383667,
				-3.753988027572632,
				-2.0951895713806152
			],
			"type":"VEC3"
		},
		{
			"bufferView":4,
			"componentType":5126,
			"count":492,
			"type":"VEC3"
		},
		{
			"bufferView":5,
			"componentType":5123,
			"count":534,
			"type":"SCALAR"
		}
	],
	"bufferViews":[
		{
			"buffer":0,
			"byteLength":1632,
			"byteOffset":0,
			"target":34962
		},
		{
			"buffer":0,
			"byteLength":1632,
			"byteOffset":1632,
			"target":34962
		},
		{
			"buffer":0,
			"byteLength":420,
			"byteOffset":3264,
			"target":34963
		},
		{
			"buffer":0,
			"byteLength":5904,
			"byteOffset":3684,
			"target":34962
		},
		{
			"buffer":0,
			"byteLength":5904,
			"byteOffset":9588,
			"target":34962
		},
		{
			"buffer":0,
			"byteLength":1068,
			"byteOffset":15492,
			"target":34963
		}
	],
	"buffers":[
		{
			"byteLength":16560,
			"uri":"Mushroom2.1-02329acdca2f69687173300ace06440c.bin"
		}
	]
}
