{
	"asset":{
		"generator":"Khronos glTF Blender I/O v4.0.44",
		"version":"2.0"
	},
	"scene":0,
	"scenes":[
		{
			"name":"Scene",
			"nodes":[
				0
			]
		}
	],
	"nodes":[
		{
			"mesh":0,
			"name":"Tree1.2",
			"rotation":[
				0.15718376636505127,
				0.6878768801689148,
				0.1578512191772461,
				0.6907978057861328
			],
			"scale":[
				0.4660055935382843,
				0.4660055935382843,
				0.4660055637359619
			],
			"translation":[
				0.49831438064575195,
				3.9411792755126953,
				-0.6989535093307495
			]
		}
	],
	"materials":[
		{
			"doubleSided":true,
			"name":"Leaves",
			"pbrMetallicRoughness":{
				"baseColorFactor":[
					0.2230611890554428,
					0.7230419516563416,
					0.04733007028698921,
					1
				],
				"metallicFactor":0,
				"roughnessFactor":0.5
			}
		},
		{
			"doubleSided":true,
			"name":"Trunk",
			"pbrMetallicRoughness":{
				"baseColorFactor":[
					0.20190049707889557,
					0.12030284106731415,
					0.07227102667093277,
					1
				],
				"metallicFactor":0,
				"roughnessFactor":0.5
			}
		},
		{
			"doubleSided":true,
			"name":"Trunk2",
			"pbrMetallicRoughness":{
				"baseColorFactor":[
					0.8000000715255737,
					0.4103736877441406,
					0.11072106659412384,
					1
				],
				"metallicFactor":0,
				"roughnessFactor":0.5
			}
		}
	],
	"meshes":[
		{
			"name":"Icosphere.005",
			"primitives":[
				{
					"attributes":{
						"POSITION":0,
						"NORMAL":1
					},
					"indices":2,
					"material":0
				},
				{
					"attributes":{
						"POSITION":3,
						"NORMAL":4
					},
					"indices":5,
					"material":1
				},
				{
					"attributes":{
						"POSITION":6,
						"NORMAL":7
					},
					"indices":8,
					"material":2
				}
			]
		}
	],
	"accessors":[
		{
			"bufferView":0,
			"componentType":5126,
			"count":960,
			"max":[
				0.9354014992713928,
				1.944190502166748,
				-0.26827311515808105
			],
			"min":[
				-4.668473243713379,
				-3.0910303592681885,
				-5.995995044708252
			],
			"type":"VEC3"
		},
		{
			"bufferView":1,
			"componentType":5126,
			"count":960,
			"type":"VEC3"
		},
		{
			"bufferView":2,
			"componentType":5123,
			"count":960,
			"type":"SCALAR"
		},
		{
			"bufferView":3,
			"componentType":5126,
			"count":1614,
			"max":[
				-0.04429584741592407,
				0.12443739175796509,
				-0.5432653427124023
			],
			"min":[
				-5.479856014251709,
				-7.3460001945495605,
				-4.6476545333862305
			],
			"type":"VEC3"
		},
		{
			"bufferView":4,
			"componentType":5126,
			"count":1614,
			"type":"VEC3"
		},
		{
			"bufferView":5,
			"componentType":5123,
			"count":2094,
			"type":"SCALAR"
		},
		{
			"bufferView":6,
			"componentType":5126,
			"count":8,
			"max":[
				-1.9387049674987793,
				-2.69201922416687,
				-1.4218182563781738
			],
			"min":[
				-2.283608913421631,
				-3.1271095275878906,
				-1.771019697189331
			],
			"type":"VEC3"
		},
		{
			"bufferView":7,
			"componentType":5126,
			"count":8,
			"type":"VEC3"
		},
		{
			"bufferView":8,
			"componentType":5123,
			"count":18,
			"type":"SCALAR"
		}
	],
	"bufferViews":[
		{
			"buffer":0,
			"byteLength":11520,
			"byteOffset":0,
			"target":34962
		},
		{
			"buffer":0,
			"byteLength":11520,
			"byteOffset":11520,
			"target":34962
		},
		{
			"buffer":0,
			"byteLength":1920,
			"byteOffset":23040,
			"target":34963
		},
		{
			"buffer":0,
			"byteLength":19368,
			"byteOffset":24960,
			"target":34962
		},
		{
			"buffer":0,
			"byteLength":19368,
			"byteOffset":44328,
			"target":34962
		},
		{
			"buffer":0,
			"byteLength":4188,
			"byteOffset":63696,
			"target":34963
		},
		{
			"buffer":0,
			"byteLength":96,
			"byteOffset":67884,
			"target":34962
		},
		{
			"buffer":0,
			"byteLength":96,
			"byteOffset":67980,
			"target":34962
		},
		{
			"buffer":0,
			"byteLength":36,
			"byteOffset":68076,
			"target":34963
		}
	],
	"buffers":[
		{
			"byteLength":68112,
			"uri":"Tree1.2-4cb603952125dda4c3023cf72117d608.bin"
		}
	]
}
