{
	"asset":{
		"generator":"Khronos glTF Blender I/O v4.0.44",
		"version":"2.0"
	},
	"scene":0,
	"scenes":[
		{
			"name":"Scene",
			"nodes":[
				0
			]
		}
	],
	"nodes":[
		{
			"mesh":0,
			"name":"Tree3.3",
			"scale":[
				0.5034255981445312,
				0.5034255981445312,
				0.5034255981445312
			],
			"translation":[
				-0.12852253019809723,
				0.10652527213096619,
				0
			]
		}
	],
	"materials":[
		{
			"doubleSided":true,
			"name":"Trunk",
			"pbrMetallicRoughness":{
				"baseColorFactor":[
					0.14239999651908875,
					0.06382158398628235,
					0.016628779470920563,
					1
				],
				"metallicFactor":0,
				"roughnessFactor":0.5
			}
		},
		{
			"doubleSided":true,
			"name":"Leaves",
			"pbrMetallicRoughness":{
				"baseColorFactor":[
					0.028586778789758682,
					0.15743370354175568,
					0.023115262389183044,
					1
				],
				"metallicFactor":0,
				"roughnessFactor":0.5
			}
		}
	],
	"meshes":[
		{
			"name":"Cylinder.001",
			"primitives":[
				{
					"attributes":{
						"POSITION":0,
						"NORMAL":1
					},
					"indices":2,
					"material":0
				},
				{
					"attributes":{
						"POSITION":3,
						"NORMAL":4
					},
					"indices":5,
					"material":1
				}
			]
		}
	],
	"accessors":[
		{
			"bufferView":0,
			"componentType":5126,
			"count":80,
			"max":[
				0.9954462647438049,
				0.23892951011657715,
				0.7643097043037415
			],
			"min":[
				-0.7458228468894958,
				-4.678565502166748,
				-0.9769594073295593
			],
			"type":"VEC3"
		},
		{
			"bufferView":1,
			"componentType":5126,
			"count":80,
			"type":"VEC3"
		},
		{
			"bufferView":2,
			"componentType":5123,
			"count":132,
			"type":"SCALAR"
		},
		{
			"bufferView":3,
			"componentType":5126,
			"count":408,
			"max":[
				3.169285535812378,
				6.676863670349121,
				3.210287094116211
			],
			"min":[
				-3.2037479877471924,
				-3.9483256340026855,
				-3.1456120014190674
			],
			"type":"VEC3"
		},
		{
			"bufferView":4,
			"componentType":5126,
			"count":408,
			"type":"VEC3"
		},
		{
			"bufferView":5,
			"componentType":5123,
			"count":726,
			"type":"SCALAR"
		}
	],
	"bufferViews":[
		{
			"buffer":0,
			"byteLength":960,
			"byteOffset":0,
			"target":34962
		},
		{
			"buffer":0,
			"byteLength":960,
			"byteOffset":960,
			"target":34962
		},
		{
			"buffer":0,
			"byteLength":264,
			"byteOffset":1920,
			"target":34963
		},
		{
			"buffer":0,
			"byteLength":4896,
			"byteOffset":2184,
			"target":34962
		},
		{
			"buffer":0,
			"byteLength":4896,
			"byteOffset":7080,
			"target":34962
		},
		{
			"buffer":0,
			"byteLength":1452,
			"byteOffset":11976,
			"target":34963
		}
	],
	"buffers":[
		{
			"byteLength":13428,
			"uri":"Tree3.3-861bababaabaa72704f8d7e87720d181.bin"
		}
	]
}
