{
	"asset":{
		"generator":"Khronos glTF Blender I/O v4.0.44",
		"version":"2.0"
	},
	"scene":0,
	"scenes":[
		{
			"name":"Scene",
			"nodes":[
				0
			]
		}
	],
	"nodes":[
		{
			"mesh":0,
			"name":"Tree2.1",
			"scale":[
				0.6600000262260437,
				0.6600000262260437,
				0.6600000262260437
			]
		}
	],
	"materials":[
		{
			"doubleSided":true,
			"name":"Trunk",
			"pbrMetallicRoughness":{
				"baseColorFactor":[
					0.19017735123634338,
					0.08881522715091705,
					0.05067019537091255,
					1
				],
				"metallicFactor":0,
				"roughnessFactor":0.5
			}
		},
		{
			"doubleSided":true,
			"name":"Leaves",
			"pbrMetallicRoughness":{
				"baseColorFactor":[
					0.07122397422790527,
					0.17886139452457428,
					0.046334706246852875,
					1
				],
				"metallicFactor":0,
				"roughnessFactor":0.5
			}
		}
	],
	"meshes":[
		{
			"name":"Cube.001",
			"primitives":[
				{
					"attributes":{
						"POSITION":0,
						"NORMAL":1
					},
					"indices":2,
					"material":0
				},
				{
					"attributes":{
						"POSITION":3,
						"NORMAL":4
					},
					"indices":5,
					"material":1
				}
			]
		}
	],
	"accessors":[
		{
			"bufferView":0,
			"componentType":5126,
			"count":1336,
			"max":[
				4.5316925048828125,
				1.3478312492370605,
				1.1960498094558716
			],
			"min":[
				-5.899178504943848,
				-6.203999996185303,
				-0.5579770803451538
			],
			"type":"VEC3"
		},
		{
			"bufferView":1,
			"componentType":5126,
			"count":1336,
			"type":"VEC3"
		},
		{
			"bufferView":2,
			"componentType":5123,
			"count":1614,
			"type":"SCALAR"
		},
		{
			"bufferView":3,
			"componentType":5126,
			"count":1680,
			"max":[
				6.0037336349487305,
				3.9287781715393066,
				2.250274658203125
			],
			"min":[
				-7.385928630828857,
				-1.79972505569458,
				-2.6913743019104004
			],
			"type":"VEC3"
		},
		{
			"bufferView":4,
			"componentType":5126,
			"count":1680,
			"type":"VEC3"
		},
		{
			"bufferView":5,
			"componentType":5123,
			"count":1680,
			"type":"SCALAR"
		}
	],
	"bufferViews":[
		{
			"buffer":0,
			"byteLength":16032,
			"byteOffset":0,
			"target":34962
		},
		{
			"buffer":0,
			"byteLength":16032,
			"byteOffset":16032,
			"target":34962
		},
		{
			"buffer":0,
			"byteLength":3228,
			"byteOffset":32064,
			"target":34963
		},
		{
			"buffer":0,
			"byteLength":20160,
			"byteOffset":35292,
			"target":34962
		},
		{
			"buffer":0,
			"byteLength":20160,
			"byteOffset":55452,
			"target":34962
		},
		{
			"buffer":0,
			"byteLength":3360,
			"byteOffset":75612,
			"target":34963
		}
	],
	"buffers":[
		{
			"byteLength":78972,
			"uri":"Tree2.1-c9e1a47650a3c84b1da5f5ffed2d7f14.bin"
		}
	]
}
