{
	"asset":{
		"generator":"Khronos glTF Blender I/O v4.0.44",
		"version":"2.0"
	},
	"scene":0,
	"scenes":[
		{
			"name":"Scene",
			"nodes":[
				0
			]
		}
	],
	"nodes":[
		{
			"mesh":0,
			"name":"Tree2.2",
			"scale":[
				0.699999988079071,
				0.699999988079071,
				0.699999988079071
			]
		}
	],
	"materials":[
		{
			"doubleSided":true,
			"name":"Trunk",
			"pbrMetallicRoughness":{
				"baseColorFactor":[
					0.19017735123634338,
					0.08881522715091705,
					0.05067019537091255,
					1
				],
				"metallicFactor":0,
				"roughnessFactor":0.5
			}
		},
		{
			"doubleSided":true,
			"name":"Leaves",
			"pbrMetallicRoughness":{
				"baseColorFactor":[
					0.07122397422790527,
					0.17886139452457428,
					0.046334706246852875,
					1
				],
				"metallicFactor":0,
				"roughnessFactor":0.5
			}
		}
	],
	"meshes":[
		{
			"name":"Cube.001",
			"primitives":[
				{
					"attributes":{
						"POSITION":0,
						"NORMAL":1
					},
					"indices":2,
					"material":0
				},
				{
					"attributes":{
						"POSITION":3,
						"NORMAL":4
					},
					"indices":5,
					"material":1
				}
			]
		}
	],
	"accessors":[
		{
			"bufferView":0,
			"componentType":5126,
			"count":1124,
			"max":[
				3.884028673171997,
				1.745100975036621,
				1.175405502319336
			],
			"min":[
				-3.6702890396118164,
				-5.806730270385742,
				-0.5786213278770447
			],
			"type":"VEC3"
		},
		{
			"bufferView":1,
			"componentType":5126,
			"count":1124,
			"type":"VEC3"
		},
		{
			"bufferView":2,
			"componentType":5123,
			"count":1380,
			"type":"SCALAR"
		},
		{
			"bufferView":3,
			"componentType":5126,
			"count":1440,
			"max":[
				4.577625274658203,
				4.326047897338867,
				2.140254497528076
			],
			"min":[
				-4.692183017730713,
				-3.152951717376709,
				-2.7120184898376465
			],
			"type":"VEC3"
		},
		{
			"bufferView":4,
			"componentType":5126,
			"count":1440,
			"type":"VEC3"
		},
		{
			"bufferView":5,
			"componentType":5123,
			"count":1440,
			"type":"SCALAR"
		}
	],
	"bufferViews":[
		{
			"buffer":0,
			"byteLength":13488,
			"byteOffset":0,
			"target":34962
		},
		{
			"buffer":0,
			"byteLength":13488,
			"byteOffset":13488,
			"target":34962
		},
		{
			"buffer":0,
			"byteLength":2760,
			"byteOffset":26976,
			"target":34963
		},
		{
			"buffer":0,
			"byteLength":17280,
			"byteOffset":29736,
			"target":34962
		},
		{
			"buffer":0,
			"byteLength":17280,
			"byteOffset":47016,
			"target":34962
		},
		{
			"buffer":0,
			"byteLength":2880,
			"byteOffset":64296,
			"target":34963
		}
	],
	"buffers":[
		{
			"byteLength":67176,
			"uri":"Tree2.2-36262c3c39407211a480289b418f9ea8.bin"
		}
	]
}
