{
	"asset":{
		"generator":"Khronos glTF Blender I/O v4.0.44",
		"version":"2.0"
	},
	"scene":0,
	"scenes":[
		{
			"name":"Scene",
			"nodes":[
				0
			]
		}
	],
	"nodes":[
		{
			"mesh":0,
			"name":"Tree1.1",
			"rotation":[
				0.15718376636505127,
				0.6878768801689148,
				0.1578512191772461,
				0.6907978057861328
			],
			"scale":[
				0.4660055935382843,
				0.4660055935382843,
				0.4660055637359619
			],
			"translation":[
				0.49831438064575195,
				3.9411792755126953,
				-0.6989535093307495
			]
		}
	],
	"materials":[
		{
			"doubleSided":true,
			"name":"Leaves",
			"pbrMetallicRoughness":{
				"baseColorFactor":[
					0.2230611890554428,
					0.7230419516563416,
					0.04733007028698921,
					1
				],
				"metallicFactor":0,
				"roughnessFactor":0.5
			}
		},
		{
			"doubleSided":true,
			"name":"Trunk",
			"pbrMetallicRoughness":{
				"baseColorFactor":[
					0.20190049707889557,
					0.12030284106731415,
					0.07227102667093277,
					1
				],
				"metallicFactor":0,
				"roughnessFactor":0.5
			}
		}
	],
	"meshes":[
		{
			"name":"Icosphere.005",
			"primitives":[
				{
					"attributes":{
						"POSITION":0,
						"NORMAL":1
					},
					"indices":2,
					"material":0
				},
				{
					"attributes":{
						"POSITION":3,
						"NORMAL":4
					},
					"indices":5,
					"material":1
				}
			]
		}
	],
	"accessors":[
		{
			"bufferView":0,
			"componentType":5126,
			"count":1440,
			"max":[
				3.87608003616333,
				2.2789759635925293,
				1.348067283630371
			],
			"min":[
				-3.4045777320861816,
				-2.531627655029297,
				-5.999059677124023
			],
			"type":"VEC3"
		},
		{
			"bufferView":1,
			"componentType":5126,
			"count":1440,
			"type":"VEC3"
		},
		{
			"bufferView":2,
			"componentType":5123,
			"count":1440,
			"type":"SCALAR"
		},
		{
			"bufferView":3,
			"componentType":5126,
			"count":2304,
			"max":[
				2.3452396392822266,
				0.45922279357910156,
				0.9836221933364868
			],
			"min":[
				-5.479856014251709,
				-7.3460001945495605,
				-4.650719165802002
			],
			"type":"VEC3"
		},
		{
			"bufferView":4,
			"componentType":5126,
			"count":2304,
			"type":"VEC3"
		},
		{
			"bufferView":5,
			"componentType":5123,
			"count":2964,
			"type":"SCALAR"
		}
	],
	"bufferViews":[
		{
			"buffer":0,
			"byteLength":17280,
			"byteOffset":0,
			"target":34962
		},
		{
			"buffer":0,
			"byteLength":17280,
			"byteOffset":17280,
			"target":34962
		},
		{
			"buffer":0,
			"byteLength":2880,
			"byteOffset":34560,
			"target":34963
		},
		{
			"buffer":0,
			"byteLength":27648,
			"byteOffset":37440,
			"target":34962
		},
		{
			"buffer":0,
			"byteLength":27648,
			"byteOffset":65088,
			"target":34962
		},
		{
			"buffer":0,
			"byteLength":5928,
			"byteOffset":92736,
			"target":34963
		}
	],
	"buffers":[
		{
			"byteLength":98664,
			"uri":"Tree1.1-10729752313f9e8860c46cf8a4d20ffc.bin"
		}
	]
}
