{
	"asset":{
		"generator":"Khronos glTF Blender I/O v4.0.44",
		"version":"2.0"
	},
	"scene":0,
	"scenes":[
		{
			"name":"Scene",
			"nodes":[
				0
			]
		}
	],
	"nodes":[
		{
			"mesh":0,
			"name":"Tree2.3",
			"scale":[
				0.699999988079071,
				0.699999988079071,
				0.699999988079071
			]
		}
	],
	"materials":[
		{
			"doubleSided":true,
			"name":"Trunk",
			"pbrMetallicRoughness":{
				"baseColorFactor":[
					0.14239999651908875,
					0.07287592440843582,
					0.01666310802102089,
					1
				],
				"metallicFactor":0,
				"roughnessFactor":0.5
			}
		},
		{
			"doubleSided":true,
			"name":"Leaves",
			"pbrMetallicRoughness":{
				"baseColorFactor":[
					0.07122397422790527,
					0.17886139452457428,
					0.046334706246852875,
					1
				],
				"metallicFactor":0,
				"roughnessFactor":0.5
			}
		}
	],
	"meshes":[
		{
			"name":"Cube.002",
			"primitives":[
				{
					"attributes":{
						"POSITION":0,
						"NORMAL":1
					},
					"indices":2,
					"material":0
				},
				{
					"attributes":{
						"POSITION":3,
						"NORMAL":4
					},
					"indices":5,
					"material":1
				}
			]
		}
	],
	"accessors":[
		{
			"bufferView":0,
			"componentType":5126,
			"count":1700,
			"max":[
				2.930767774581909,
				1.520552396774292,
				1.289052963256836
			],
			"min":[
				-2.102337598800659,
				-3.7852425575256348,
				-1.3500820398330688
			],
			"type":"VEC3"
		},
		{
			"bufferView":1,
			"componentType":5126,
			"count":1700,
			"type":"VEC3"
		},
		{
			"bufferView":2,
			"componentType":5123,
			"count":2184,
			"type":"SCALAR"
		},
		{
			"bufferView":3,
			"componentType":5126,
			"count":1680,
			"max":[
				3.7667837142944336,
				4.641789436340332,
				1.9813685417175293
			],
			"min":[
				-4.335055828094482,
				-1.4555234909057617,
				-2.3273398876190186
			],
			"type":"VEC3"
		},
		{
			"bufferView":4,
			"componentType":5126,
			"count":1680,
			"type":"VEC3"
		},
		{
			"bufferView":5,
			"componentType":5123,
			"count":1680,
			"type":"SCALAR"
		}
	],
	"bufferViews":[
		{
			"buffer":0,
			"byteLength":20400,
			"byteOffset":0,
			"target":34962
		},
		{
			"buffer":0,
			"byteLength":20400,
			"byteOffset":20400,
			"target":34962
		},
		{
			"buffer":0,
			"byteLength":4368,
			"byteOffset":40800,
			"target":34963
		},
		{
			"buffer":0,
			"byteLength":20160,
			"byteOffset":45168,
			"target":34962
		},
		{
			"buffer":0,
			"byteLength":20160,
			"byteOffset":65328,
			"target":34962
		},
		{
			"buffer":0,
			"byteLength":3360,
			"byteOffset":85488,
			"target":34963
		}
	],
	"buffers":[
		{
			"byteLength":88848,
			"uri":"Tree2.3-0ee9b27b61f029bfb29c93c894accab2.bin"
		}
	]
}
