{
	"asset":{
		"generator":"Khronos glTF Blender I/O v4.0.44",
		"version":"2.0"
	},
	"scene":0,
	"scenes":[
		{
			"name":"Scene",
			"nodes":[
				0
			]
		}
	],
	"nodes":[
		{
			"mesh":0,
			"name":"Tree1.3",
			"rotation":[
				0.15718376636505127,
				0.6878768801689148,
				0.1578512191772461,
				0.6907978057861328
			],
			"scale":[
				0.4660055935382843,
				0.4660055935382843,
				0.4660055637359619
			],
			"translation":[
				0.49831438064575195,
				3.9411792755126953,
				-0.6989535093307495
			]
		}
	],
	"materials":[
		{
			"doubleSided":true,
			"name":"Leaves",
			"pbrMetallicRoughness":{
				"baseColorFactor":[
					0.2230611890554428,
					0.7230419516563416,
					0.04733007028698921,
					1
				],
				"metallicFactor":0,
				"roughnessFactor":0.5
			}
		},
		{
			"doubleSided":true,
			"name":"Trunk",
			"pbrMetallicRoughness":{
				"baseColorFactor":[
					0.20190049707889557,
					0.12030284106731415,
					0.07227102667093277,
					1
				],
				"metallicFactor":0,
				"roughnessFactor":0.5
			}
		}
	],
	"meshes":[
		{
			"name":"Icosphere.005",
			"primitives":[
				{
					"attributes":{
						"POSITION":0,
						"NORMAL":1
					},
					"indices":2,
					"material":0
				},
				{
					"attributes":{
						"POSITION":3,
						"NORMAL":4
					},
					"indices":5,
					"material":1
				}
			]
		}
	],
	"accessors":[
		{
			"bufferView":0,
			"componentType":5126,
			"count":1440,
			"max":[
				2.565359592437744,
				1.9120742082595825,
				1.3798741102218628
			],
			"min":[
				-4.5459418296813965,
				-2.919069766998291,
				-4.379499912261963
			],
			"type":"VEC3"
		},
		{
			"bufferView":1,
			"componentType":5126,
			"count":1440,
			"type":"VEC3"
		},
		{
			"bufferView":2,
			"componentType":5123,
			"count":1440,
			"type":"SCALAR"
		},
		{
			"bufferView":3,
			"componentType":5126,
			"count":2304,
			"max":[
				1.3600425720214844,
				0.38859719038009644,
				0.37341830134391785
			],
			"min":[
				-5.479856014251709,
				-7.3460001945495605,
				-3.47650146484375
			],
			"type":"VEC3"
		},
		{
			"bufferView":4,
			"componentType":5126,
			"count":2304,
			"type":"VEC3"
		},
		{
			"bufferView":5,
			"componentType":5123,
			"count":2964,
			"type":"SCALAR"
		}
	],
	"bufferViews":[
		{
			"buffer":0,
			"byteLength":17280,
			"byteOffset":0,
			"target":34962
		},
		{
			"buffer":0,
			"byteLength":17280,
			"byteOffset":17280,
			"target":34962
		},
		{
			"buffer":0,
			"byteLength":2880,
			"byteOffset":34560,
			"target":34963
		},
		{
			"buffer":0,
			"byteLength":27648,
			"byteOffset":37440,
			"target":34962
		},
		{
			"buffer":0,
			"byteLength":27648,
			"byteOffset":65088,
			"target":34962
		},
		{
			"buffer":0,
			"byteLength":5928,
			"byteOffset":92736,
			"target":34963
		}
	],
	"buffers":[
		{
			"byteLength":98664,
			"uri":"Tree1.3-242a3ca260b0df82731b207ec66b2f23.bin"
		}
	]
}
