{
	"asset":{
		"generator":"Khronos glTF Blender I/O v4.0.44",
		"version":"2.0"
	},
	"extensionsUsed":[
		"KHR_lights_punctual"
	],
	"extensionsRequired":[
		"KHR_lights_punctual"
	],
	"extensions":{
		"KHR_lights_punctual":{
			"lights":[
				{
					"color":[
						1,
						1,
						1
					],
					"intensity":683,
					"type":"directional",
					"name":"Sun"
				}
			]
		}
	},
	"scene":0,
	"scenes":[
		{
			"extras":{
				"skinify":{
					"connect_mesh":0,
					"connect_parents":0,
					"generate_all":0,
					"thickness":0.800000011920929,
					"finger_thickness":0.25,
					"apply_mod":1,
					"parent_armature":1,
					"sub_level":1
				},
				"namedlayers":{
					"layers":[
						{
							"name":"Layer01"
						},
						{
							"name":"Layer02"
						},
						{
							"name":"Layer03"
						},
						{
							"name":"Layer04"
						},
						{
							"name":"Layer05"
						},
						{
							"name":"Layer06"
						},
						{
							"name":"Layer07"
						},
						{
							"name":"Layer08"
						},
						{
							"name":"Layer09"
						},
						{
							"name":"Layer10"
						},
						{
							"name":"Layer11"
						},
						{
							"name":"Layer12"
						},
						{
							"name":"Layer13"
						},
						{
							"name":"Layer14"
						},
						{
							"name":"Layer15"
						},
						{
							"name":"Layer16"
						},
						{
							"name":"Layer17"
						},
						{
							"name":"Layer18"
						},
						{
							"name":"Layer19"
						},
						{
							"name":"Layer20"
						}
					],
					"use_init":0
				},
				"ats_settings":{
					"num_tiles":[
						8,
						5
					],
					"threads_error":0,
					"prev_engine":"CYCLES",
					"prev_device":"GPU",
					"prev_border":0,
					"prev_threads":1,
					"prev_choice":"256",
					"prev_res":[
						1920,
						1080
					],
					"prev_border_res":[
						0.0,
						0.0,
						1.0,
						1.0
					],
					"prev_actual_tile_size":[
						240,
						216
					],
					"first_run":0
				},
				"kr_auto_markers":0,
				"kr_in_marker":1,
				"kr_out_marker":75,
				"kr_default_fade_duration":24,
				"kr_default_fade_amount":1.0,
				"kr_recursive":0,
				"kr_recursive_select_by_extension":0,
				"kr_default_ext":2,
				"kr_scn_init":1,
				"network_render":{},
				"svg_export":{},
				"oscurart":{},
				"lightfield":{},
				"partition_render_vars":{},
				"bsurfaces":{},
				"matlib":{}
			},
			"name":"Scene",
			"nodes":[
				0,
				1
			]
		}
	],
	"nodes":[
		{
			"extras":{
				"s_curve":{},
				"ant_landscape":{}
			},
			"mesh":0,
			"name":"Cube.001",
			"scale":[
				0.27491188049316406,
				0.7197948694229126,
				0.27491188049316406
			]
		},
		{
			"extensions":{
				"KHR_lights_punctual":{
					"light":0
				}
			},
			"extras":{
				"pov":{},
				"s_curve":{}
			},
			"name":"Sun",
			"rotation":[
				-0.36463895440101624,
				-0.35143694281578064,
				0.05775099992752075,
				0.8603460788726807
			],
			"translation":[
				-6.419288635253906,
				6.104718208312988,
				-0.24500904977321625
			]
		}
	],
	"materials":[
		{
			"doubleSided":true,
			"extras":{
				"ms3d":{}
			},
			"name":"tre__fin_",
			"pbrMetallicRoughness":{}
		}
	],
	"meshes":[
		{
			"extras":{
				"ms3d":{}
			},
			"name":"Cube.001",
			"primitives":[
				{
					"attributes":{
						"POSITION":0,
						"NORMAL":1,
						"TEXCOORD_0":2
					},
					"indices":3,
					"material":0
				}
			]
		}
	],
	"accessors":[
		{
			"bufferView":0,
			"componentType":5126,
			"count":1704,
			"max":[
				5.893982887268066,
				8.101031303405762,
				5.42852258682251
			],
			"min":[
				-5.496951580047607,
				-0.1000446081161499,
				-5.745089530944824
			],
			"type":"VEC3"
		},
		{
			"bufferView":1,
			"componentType":5126,
			"count":1704,
			"type":"VEC3"
		},
		{
			"bufferView":2,
			"componentType":5126,
			"count":1704,
			"type":"VEC2"
		},
		{
			"bufferView":3,
			"componentType":5123,
			"count":2550,
			"type":"SCALAR"
		}
	],
	"bufferViews":[
		{
			"buffer":0,
			"byteLength":20448,
			"byteOffset":0,
			"target":34962
		},
		{
			"buffer":0,
			"byteLength":20448,
			"byteOffset":20448,
			"target":34962
		},
		{
			"buffer":0,
			"byteLength":13632,
			"byteOffset":40896,
			"target":34962
		},
		{
			"buffer":0,
			"byteLength":5100,
			"byteOffset":54528,
			"target":34963
		}
	],
	"buffers":[
		{
			"byteLength":59628,
			"uri":"tree_bonus-dcd67f1c420709667b472f73bc2757bc.bin"
		}
	]
}
